<mxfile host="app.diagrams.net" modified="2021-06-07T13:22:28.759Z" agent="5.0 (Windows NT 10.0; Win64; x64) AppleWebKit/537.36 (KHTML, like Gecko) Chrome/91.0.4472.77 Safari/537.36" etag="RhFPL5TK8uKi6egR1RtB" version="14.7.6" type="github">
  <diagram id="MmD4Tu3jAxmBGYifqvtR" name="Page-1">
    <mxGraphModel dx="865" dy="689" grid="1" gridSize="10" guides="1" tooltips="1" connect="1" arrows="1" fold="1" page="1" pageScale="1" pageWidth="827" pageHeight="1169" math="0" shadow="0">
      <root>
        <mxCell id="0" />
        <mxCell id="1" parent="0" />
        <mxCell id="VglDRwMaJpxy7JB3EEr_-5" value="&amp;lt;&amp;lt;interface&amp;gt;&amp;gt;&lt;br&gt;&lt;i&gt;Command&lt;/i&gt;" style="rounded=0;whiteSpace=wrap;html=1;" parent="1" vertex="1">
          <mxGeometry x="600" y="40" width="120" height="30" as="geometry" />
        </mxCell>
        <mxCell id="VglDRwMaJpxy7JB3EEr_-6" value="" style="rounded=0;whiteSpace=wrap;html=1;" parent="1" vertex="1">
          <mxGeometry x="600" y="70" width="120" height="20" as="geometry" />
        </mxCell>
        <mxCell id="VglDRwMaJpxy7JB3EEr_-7" value="execute" style="rounded=0;whiteSpace=wrap;html=1;align=left;" parent="1" vertex="1">
          <mxGeometry x="600" y="90" width="120" height="30" as="geometry" />
        </mxCell>
        <mxCell id="VglDRwMaJpxy7JB3EEr_-33" style="edgeStyle=orthogonalEdgeStyle;rounded=0;orthogonalLoop=1;jettySize=auto;html=1;exitX=1;exitY=0.5;exitDx=0;exitDy=0;entryX=1;entryY=0;entryDx=0;entryDy=0;startArrow=diamond;startFill=0;endArrow=none;endFill=0;" parent="1" source="VglDRwMaJpxy7JB3EEr_-8" target="VglDRwMaJpxy7JB3EEr_-6" edge="1">
          <mxGeometry relative="1" as="geometry">
            <Array as="points">
              <mxPoint x="910" y="215" />
              <mxPoint x="910" y="60" />
              <mxPoint x="720" y="60" />
            </Array>
          </mxGeometry>
        </mxCell>
        <mxCell id="VglDRwMaJpxy7JB3EEr_-34" style="edgeStyle=orthogonalEdgeStyle;rounded=0;orthogonalLoop=1;jettySize=auto;html=1;exitX=0.5;exitY=0;exitDx=0;exitDy=0;entryX=0.5;entryY=1;entryDx=0;entryDy=0;startArrow=none;startFill=0;endArrow=block;endFill=0;dashed=1;" parent="1" source="VglDRwMaJpxy7JB3EEr_-8" target="VglDRwMaJpxy7JB3EEr_-7" edge="1">
          <mxGeometry relative="1" as="geometry" />
        </mxCell>
        <mxCell id="VglDRwMaJpxy7JB3EEr_-8" value="&lt;b&gt;MacroCommand&lt;/b&gt;" style="rounded=0;whiteSpace=wrap;html=1;" parent="1" vertex="1">
          <mxGeometry x="707" y="200" width="120" height="30" as="geometry" />
        </mxCell>
        <mxCell id="VglDRwMaJpxy7JB3EEr_-9" value="commands&lt;br&gt;cmds" style="rounded=0;whiteSpace=wrap;html=1;align=left;" parent="1" vertex="1">
          <mxGeometry x="707" y="230" width="120" height="40" as="geometry" />
        </mxCell>
        <mxCell id="VglDRwMaJpxy7JB3EEr_-10" value="execute&lt;br&gt;append&lt;br&gt;undo&lt;br&gt;redo&lt;br&gt;clear" style="rounded=0;whiteSpace=wrap;html=1;align=left;" parent="1" vertex="1">
          <mxGeometry x="707" y="270" width="120" height="90" as="geometry" />
        </mxCell>
        <mxCell id="VglDRwMaJpxy7JB3EEr_-26" style="edgeStyle=orthogonalEdgeStyle;rounded=0;orthogonalLoop=1;jettySize=auto;html=1;exitX=0.5;exitY=0;exitDx=0;exitDy=0;entryX=0;entryY=0.5;entryDx=0;entryDy=0;dashed=1;endArrow=block;endFill=0;" parent="1" source="VglDRwMaJpxy7JB3EEr_-11" target="VglDRwMaJpxy7JB3EEr_-5" edge="1">
          <mxGeometry relative="1" as="geometry" />
        </mxCell>
        <mxCell id="VglDRwMaJpxy7JB3EEr_-11" value="&lt;b&gt;DrawCommand&lt;/b&gt;" style="rounded=0;whiteSpace=wrap;html=1;" parent="1" vertex="1">
          <mxGeometry x="400" y="150" width="120" height="30" as="geometry" />
        </mxCell>
        <mxCell id="VglDRwMaJpxy7JB3EEr_-13" value="execute" style="rounded=0;whiteSpace=wrap;html=1;align=left;" parent="1" vertex="1">
          <mxGeometry x="400" y="220" width="120" height="30" as="geometry" />
        </mxCell>
        <mxCell id="VglDRwMaJpxy7JB3EEr_-27" style="edgeStyle=orthogonalEdgeStyle;rounded=0;orthogonalLoop=1;jettySize=auto;html=1;exitX=0;exitY=0.5;exitDx=0;exitDy=0;entryX=1;entryY=0;entryDx=0;entryDy=0;endArrow=none;endFill=0;startArrow=diamond;startFill=0;" parent="1" source="VglDRwMaJpxy7JB3EEr_-15" target="VglDRwMaJpxy7JB3EEr_-18" edge="1">
          <mxGeometry relative="1" as="geometry">
            <Array as="points">
              <mxPoint x="360" y="200" />
              <mxPoint x="360" y="250" />
            </Array>
          </mxGeometry>
        </mxCell>
        <mxCell id="VglDRwMaJpxy7JB3EEr_-15" value="drawable&lt;br&gt;position" style="rounded=0;whiteSpace=wrap;html=1;align=left;" parent="1" vertex="1">
          <mxGeometry x="400" y="180" width="120" height="40" as="geometry" />
        </mxCell>
        <mxCell id="VglDRwMaJpxy7JB3EEr_-16" value="&amp;lt;&amp;lt;interface&amp;gt;&amp;gt;&lt;br&gt;&lt;i&gt;Drawable&lt;/i&gt;" style="rounded=0;whiteSpace=wrap;html=1;" parent="1" vertex="1">
          <mxGeometry x="200" y="200" width="120" height="30" as="geometry" />
        </mxCell>
        <mxCell id="VglDRwMaJpxy7JB3EEr_-17" value="" style="rounded=0;whiteSpace=wrap;html=1;" parent="1" vertex="1">
          <mxGeometry x="200" y="230" width="120" height="20" as="geometry" />
        </mxCell>
        <mxCell id="ptDcSN6XKnWAzG4VzCQM-4" style="edgeStyle=orthogonalEdgeStyle;rounded=0;orthogonalLoop=1;jettySize=auto;html=1;exitX=1;exitY=0;exitDx=0;exitDy=0;entryX=0;entryY=0.5;entryDx=0;entryDy=0;endArrow=diamond;endFill=0;" edge="1" parent="1" source="VglDRwMaJpxy7JB3EEr_-18" target="ptDcSN6XKnWAzG4VzCQM-3">
          <mxGeometry relative="1" as="geometry">
            <Array as="points">
              <mxPoint x="360" y="250" />
              <mxPoint x="360" y="310" />
            </Array>
          </mxGeometry>
        </mxCell>
        <mxCell id="VglDRwMaJpxy7JB3EEr_-18" value="draw" style="rounded=0;whiteSpace=wrap;html=1;align=left;" parent="1" vertex="1">
          <mxGeometry x="200" y="250" width="120" height="30" as="geometry" />
        </mxCell>
        <mxCell id="VglDRwMaJpxy7JB3EEr_-28" style="edgeStyle=orthogonalEdgeStyle;rounded=0;orthogonalLoop=1;jettySize=auto;html=1;exitX=0.5;exitY=0;exitDx=0;exitDy=0;entryX=0.5;entryY=1;entryDx=0;entryDy=0;startArrow=none;startFill=0;endArrow=block;endFill=0;dashed=1;" parent="1" source="VglDRwMaJpxy7JB3EEr_-19" target="VglDRwMaJpxy7JB3EEr_-18" edge="1">
          <mxGeometry relative="1" as="geometry" />
        </mxCell>
        <mxCell id="VglDRwMaJpxy7JB3EEr_-30" style="edgeStyle=orthogonalEdgeStyle;rounded=0;orthogonalLoop=1;jettySize=auto;html=1;exitX=1;exitY=0.5;exitDx=0;exitDy=0;entryX=0.25;entryY=1;entryDx=0;entryDy=0;startArrow=diamond;startFill=0;endArrow=none;endFill=0;" parent="1" source="VglDRwMaJpxy7JB3EEr_-19" target="VglDRwMaJpxy7JB3EEr_-10" edge="1">
          <mxGeometry relative="1" as="geometry">
            <Array as="points">
              <mxPoint x="737" y="375" />
            </Array>
          </mxGeometry>
        </mxCell>
        <mxCell id="VglDRwMaJpxy7JB3EEr_-19" value="&lt;b&gt;DrawCanvas&lt;/b&gt;" style="rounded=0;whiteSpace=wrap;html=1;" parent="1" vertex="1">
          <mxGeometry x="200" y="360" width="120" height="30" as="geometry" />
        </mxCell>
        <mxCell id="VglDRwMaJpxy7JB3EEr_-20" value="history&lt;br&gt;color&lt;br&gt;radius" style="rounded=0;whiteSpace=wrap;html=1;align=left;" parent="1" vertex="1">
          <mxGeometry x="200" y="390" width="120" height="60" as="geometry" />
        </mxCell>
        <mxCell id="VglDRwMaJpxy7JB3EEr_-22" value="draw&lt;br&gt;paint" style="rounded=0;whiteSpace=wrap;html=1;align=left;" parent="1" vertex="1">
          <mxGeometry x="200" y="450" width="120" height="40" as="geometry" />
        </mxCell>
        <mxCell id="VglDRwMaJpxy7JB3EEr_-23" value="" style="rounded=0;whiteSpace=wrap;html=1;" parent="1" vertex="1">
          <mxGeometry x="400" y="560" width="120" height="20" as="geometry" />
        </mxCell>
        <mxCell id="VglDRwMaJpxy7JB3EEr_-24" value="&lt;b&gt;Main&lt;/b&gt;" style="rounded=0;whiteSpace=wrap;html=1;" parent="1" vertex="1">
          <mxGeometry x="400" y="400" width="120" height="30" as="geometry" />
        </mxCell>
        <mxCell id="VglDRwMaJpxy7JB3EEr_-31" style="edgeStyle=orthogonalEdgeStyle;rounded=0;orthogonalLoop=1;jettySize=auto;html=1;entryX=0.5;entryY=1;entryDx=0;entryDy=0;startArrow=diamond;startFill=0;endArrow=none;endFill=0;exitX=0;exitY=0.554;exitDx=0;exitDy=0;exitPerimeter=0;" parent="1" source="VglDRwMaJpxy7JB3EEr_-25" target="VglDRwMaJpxy7JB3EEr_-22" edge="1">
          <mxGeometry relative="1" as="geometry">
            <mxPoint x="390" y="530" as="sourcePoint" />
            <Array as="points">
              <mxPoint x="260" y="502" />
            </Array>
          </mxGeometry>
        </mxCell>
        <mxCell id="VglDRwMaJpxy7JB3EEr_-32" style="edgeStyle=orthogonalEdgeStyle;rounded=0;orthogonalLoop=1;jettySize=auto;html=1;exitX=1;exitY=0.5;exitDx=0;exitDy=0;entryX=0.75;entryY=1;entryDx=0;entryDy=0;startArrow=diamond;startFill=0;endArrow=none;endFill=0;" parent="1" source="VglDRwMaJpxy7JB3EEr_-25" target="VglDRwMaJpxy7JB3EEr_-10" edge="1">
          <mxGeometry relative="1" as="geometry" />
        </mxCell>
        <mxCell id="VglDRwMaJpxy7JB3EEr_-25" value="history&lt;br&gt;canvas&lt;br&gt;clearButton&lt;br&gt;redButton&lt;br&gt;greenButton&lt;br&gt;blueButton&lt;br&gt;undoButton&lt;br&gt;redoButton" style="rounded=0;whiteSpace=wrap;html=1;align=left;" parent="1" vertex="1">
          <mxGeometry x="400" y="430" width="120" height="130" as="geometry" />
        </mxCell>
        <mxCell id="ptDcSN6XKnWAzG4VzCQM-1" value="&lt;b&gt;ColorCommand&lt;/b&gt;" style="rounded=0;whiteSpace=wrap;html=1;" vertex="1" parent="1">
          <mxGeometry x="400" y="260" width="120" height="30" as="geometry" />
        </mxCell>
        <mxCell id="ptDcSN6XKnWAzG4VzCQM-2" value="execute" style="rounded=0;whiteSpace=wrap;html=1;align=left;" vertex="1" parent="1">
          <mxGeometry x="400" y="330" width="120" height="30" as="geometry" />
        </mxCell>
        <mxCell id="ptDcSN6XKnWAzG4VzCQM-6" style="edgeStyle=orthogonalEdgeStyle;rounded=0;orthogonalLoop=1;jettySize=auto;html=1;exitX=1;exitY=0.5;exitDx=0;exitDy=0;entryX=0.5;entryY=1;entryDx=0;entryDy=0;dashed=1;startArrow=none;startFill=0;endArrow=block;endFill=0;" edge="1" parent="1" source="ptDcSN6XKnWAzG4VzCQM-3" target="VglDRwMaJpxy7JB3EEr_-7">
          <mxGeometry relative="1" as="geometry" />
        </mxCell>
        <mxCell id="ptDcSN6XKnWAzG4VzCQM-3" value="drawable&lt;br&gt;color" style="rounded=0;whiteSpace=wrap;html=1;align=left;" vertex="1" parent="1">
          <mxGeometry x="400" y="290" width="120" height="40" as="geometry" />
        </mxCell>
      </root>
    </mxGraphModel>
  </diagram>
</mxfile>
